<svg width="9" height="16" viewBox="0 0 9 16" fill="none" xmlns="http://www.w3.org/2000/svg">
<path d="M7.00001 1.00006C7.23366 0.999602 7.4601 1.08098 7.64001 1.23006C7.74127 1.31401 7.82497 1.41711 7.88632 1.53346C7.94767 1.6498 7.98547 1.77711 7.99755 1.90809C8.00962 2.03906 7.99574 2.17114 7.95669 2.29674C7.91765 2.42234 7.85421 2.53901 7.77001 2.64006L3.29001 8.00006L7.61001 13.3701C7.69308 13.4723 7.75511 13.59 7.79254 13.7164C7.82997 13.8427 7.84206 13.9752 7.82813 14.1062C7.81419 14.2373 7.77449 14.3643 7.71132 14.4799C7.64814 14.5955 7.56274 14.6975 7.46001 14.7801C7.35654 14.8711 7.23538 14.9398 7.10412 14.9818C6.97285 15.0237 6.83433 15.0381 6.69724 15.0241C6.56014 15.01 6.42744 14.9677 6.30746 14.8999C6.18748 14.8321 6.0828 14.7402 6.00001 14.6301L1.17001 8.63006C1.02293 8.45113 0.942522 8.22668 0.942522 7.99506C0.942522 7.76343 1.02293 7.53899 1.17001 7.36006L6.17001 1.36006C6.27033 1.23904 6.39776 1.14338 6.54197 1.08083C6.68618 1.01828 6.8431 0.990608 7.00001 1.00006Z" fill="white"/>
</svg>
