<svg width="24" height="28" viewBox="0 0 24 28" fill="none" xmlns="http://www.w3.org/2000/svg">
<g clip-path="url(#clip0_6_362)">
<path d="M18.249 17.41C17.463 19.003 16.398 20.59 15.309 22.015C14.2759 23.3584 13.1713 24.6453 12 25.87C10.8286 24.6453 9.72403 23.3584 8.691 22.015C7.602 20.59 6.537 19.003 5.751 17.41C4.956 15.8005 4.5 14.293 4.5 13C4.5 11.0109 5.29018 9.10322 6.6967 7.6967C8.10322 6.29018 10.0109 5.5 12 5.5C13.9891 5.5 15.8968 6.29018 17.3033 7.6967C18.7098 9.10322 19.5 11.0109 19.5 13C19.5 14.293 19.0425 15.8005 18.249 17.41ZM12 28C12 28 21 19.471 21 13C21 10.6131 20.0518 8.32387 18.364 6.63604C16.6761 4.94821 14.3869 4 12 4C9.61305 4 7.32387 4.94821 5.63604 6.63604C3.94821 8.32387 3 10.6131 3 13C3 19.471 12 28 12 28Z" fill="#FF8000"/>
<path d="M12 16C11.2044 16 10.4413 15.6839 9.87868 15.1213C9.31607 14.5587 9 13.7956 9 13C9 12.2044 9.31607 11.4413 9.87868 10.8787C10.4413 10.3161 11.2044 10 12 10C12.7956 10 13.5587 10.3161 14.1213 10.8787C14.6839 11.4413 15 12.2044 15 13C15 13.7956 14.6839 14.5587 14.1213 15.1213C13.5587 15.6839 12.7956 16 12 16ZM12 17.5C13.1935 17.5 14.3381 17.0259 15.182 16.182C16.0259 15.3381 16.5 14.1935 16.5 13C16.5 11.8065 16.0259 10.6619 15.182 9.81802C14.3381 8.97411 13.1935 8.5 12 8.5C10.8065 8.5 9.66193 8.97411 8.81802 9.81802C7.97411 10.6619 7.5 11.8065 7.5 13C7.5 14.1935 7.97411 15.3381 8.81802 16.182C9.66193 17.0259 10.8065 17.5 12 17.5Z" fill="#FF8000"/>
</g>
<defs>
<clipPath id="clip0_6_362">
<rect width="24" height="24" fill="white" transform="translate(0 4)"/>
</clipPath>
</defs>
</svg>
