<svg width="24" height="25" viewBox="0 0 24 25" fill="none" xmlns="http://www.w3.org/2000/svg">
<path d="M19.4999 22.25H19.3724C4.63494 21.4025 2.54244 8.9675 2.24994 5.1725C2.22637 4.87744 2.26126 4.58062 2.3526 4.29906C2.44394 4.0175 2.58994 3.75673 2.78223 3.53169C2.97452 3.30665 3.20933 3.12177 3.4732 2.98763C3.73707 2.85349 4.02481 2.77274 4.31994 2.75H8.45244C8.75286 2.74971 9.04644 2.83963 9.29517 3.00812C9.54389 3.17661 9.73629 3.4159 9.84744 3.695L10.9874 6.5C11.0972 6.77266 11.1244 7.07156 11.0658 7.35957C11.0071 7.64758 10.8651 7.912 10.6574 8.12L9.05994 9.7325C9.30948 11.1506 9.98858 12.4578 11.0054 13.4772C12.0221 14.4967 13.3275 15.1792 14.7449 15.4325L16.3724 13.82C16.5836 13.6146 16.8505 13.4759 17.1399 13.4213C17.4293 13.3666 17.7284 13.3983 17.9999 13.5125L20.8274 14.645C21.1023 14.7597 21.3369 14.9536 21.5012 15.202C21.6654 15.4504 21.752 15.7422 21.7499 16.04V20C21.7499 20.5967 21.5129 21.169 21.0909 21.591C20.669 22.0129 20.0967 22.25 19.4999 22.25ZM4.49994 4.25C4.30103 4.25 4.11026 4.32902 3.96961 4.46967C3.82896 4.61032 3.74994 4.80109 3.74994 5V5.06C4.09494 9.5 6.30744 20 19.4549 20.75C19.5535 20.7561 19.6522 20.7427 19.7456 20.7105C19.8389 20.6783 19.925 20.6281 19.9988 20.5626C20.0727 20.4971 20.1329 20.4176 20.176 20.3288C20.2191 20.24 20.2442 20.1436 20.2499 20.045V16.04L17.4224 14.9075L15.2699 17.045L14.9099 17C8.38494 16.1825 7.49994 9.6575 7.49994 9.59L7.45494 9.23L9.58494 7.0775L8.45994 4.25H4.49994Z" fill="#FF8000"/>
</svg>
